<svg width="27" height="26" viewBox="0 0 27 26" fill="none" xmlns="http://www.w3.org/2000/svg">
<path d="M8.99999 23.8333H18C22.5225 23.8333 23.3325 22.0892 23.5687 19.9658L24.4125 11.2992C24.7162 8.65583 23.9287 6.5 19.125 6.5H7.87499C3.07124 6.5 2.28374 8.65583 2.58749 11.2992L3.43124 19.9658C3.66749 22.0892 4.47749 23.8333 8.99999 23.8333Z" stroke="#2A4897" stroke-width="1.5" stroke-miterlimit="10" stroke-linecap="round" stroke-linejoin="round"/>
<path d="M9 6.49996V5.63329C9 3.71579 9 2.16663 12.6 2.16663H14.4C18 2.16663 18 3.71579 18 5.63329V6.49996" stroke="#2A4897" stroke-width="1.5" stroke-miterlimit="10" stroke-linecap="round" stroke-linejoin="round"/>
<path d="M15.75 14.0833V15.1667C15.75 15.1775 15.75 15.1775 15.75 15.1883C15.75 16.3692 15.7388 17.3333 13.5 17.3333C11.2725 17.3333 11.25 16.38 11.25 15.1992V14.0833C11.25 13 11.25 13 12.375 13H14.625C15.75 13 15.75 13 15.75 14.0833Z" stroke="#2A4897" stroke-width="1.5" stroke-miterlimit="10" stroke-linecap="round" stroke-linejoin="round"/>
<path d="M24.3562 11.9166C21.7575 13.7366 18.7875 14.82 15.75 15.1883" stroke="#2A4897" stroke-width="1.5" stroke-miterlimit="10" stroke-linecap="round" stroke-linejoin="round"/>
<path d="M2.94751 12.2092C5.47876 13.8776 8.33626 14.8851 11.25 15.1992" stroke="#2A4897" stroke-width="1.5" stroke-miterlimit="10" stroke-linecap="round" stroke-linejoin="round"/>
</svg>
