<svg width="18" height="17" viewBox="0 0 18 17" fill="none" xmlns="http://www.w3.org/2000/svg">
<path d="M12.1038 1.37113C13.0472 1.37384 13.9511 1.73592 14.6182 2.37828C15.2852 3.02064 15.6612 3.89108 15.6641 4.79951V11.6555C15.6612 12.564 15.2852 13.4344 14.6182 14.0768C13.9511 14.7191 13.0472 15.0812 12.1038 15.0839H4.98411C4.04074 15.0812 3.13681 14.7191 2.46975 14.0768C1.80268 13.4344 1.42668 12.564 1.42387 11.6555V4.79951C1.42668 3.89108 1.80268 3.02064 2.46975 2.37828C3.13681 1.73592 4.04074 1.37384 4.98411 1.37113H12.1038ZM12.1038 0H4.98411C2.24279 0 0 2.15972 0 4.79951V11.6555C0 14.2953 2.24279 16.455 4.98411 16.455H12.1038C14.8451 16.455 17.0879 14.2953 17.0879 11.6555V4.79951C17.0879 2.15972 14.8451 0 12.1038 0Z" fill="white"/>
<path d="M13.1718 4.79956C12.9606 4.79956 12.7541 4.73924 12.5785 4.62623C12.4028 4.51323 12.2659 4.35261 12.1851 4.16468C12.1043 3.97676 12.0831 3.76998 12.1243 3.57048C12.1655 3.37098 12.2673 3.18773 12.4166 3.0439C12.566 2.90007 12.7563 2.80212 12.9635 2.76244C13.1706 2.72275 13.3854 2.74312 13.5805 2.82096C13.7757 2.8988 13.9425 3.03062 14.0598 3.19975C14.1772 3.36887 14.2398 3.56771 14.2398 3.77112C14.2401 3.90625 14.2127 4.04012 14.1591 4.16503C14.1056 4.28993 14.0269 4.40342 13.9277 4.49898C13.8284 4.59454 13.7106 4.67028 13.5809 4.72186C13.4512 4.77344 13.3121 4.79985 13.1718 4.79956ZM8.54396 5.48494C9.10726 5.48494 9.65791 5.64579 10.1263 5.94716C10.5947 6.24852 10.9597 6.67686 11.1753 7.17801C11.3908 7.67916 11.4472 8.23061 11.3373 8.76263C11.2275 9.29465 10.9562 9.78334 10.5579 10.1669C10.1596 10.5505 9.65208 10.8117 9.0996 10.9175C8.54712 11.0233 7.97446 10.969 7.45403 10.7614C6.93361 10.5538 6.48879 10.2023 6.17584 9.75129C5.86288 9.30027 5.69584 8.77001 5.69584 8.22757C5.69665 7.50042 5.99698 6.80327 6.53093 6.2891C7.06488 5.77492 7.78884 5.48572 8.54396 5.48494ZM8.54396 4.11381C7.69904 4.11381 6.87309 4.35508 6.17057 4.8071C5.46805 5.25913 4.9205 5.90161 4.59716 6.6533C4.27382 7.40499 4.18922 8.23213 4.35406 9.03013C4.51889 9.82812 4.92576 10.5611 5.52321 11.1364C6.12066 11.7118 6.88185 12.1036 7.71053 12.2623C8.53922 12.421 9.39817 12.3396 10.1788 12.0282C10.9594 11.7168 11.6266 11.1896 12.096 10.5131C12.5654 9.83655 12.8159 9.04119 12.8159 8.22757C12.8159 7.13653 12.3659 6.09018 11.5647 5.3187C10.7636 4.54722 9.67696 4.11381 8.54396 4.11381Z" fill="white"/>
</svg>
