<?xml version="1.0" encoding="UTF-8"?>
<svg version="1.1" xmlns="http://www.w3.org/2000/svg" width="225" height="225">
<path d="M0 0 C6.88127824 6.35562505 10.76059712 14.87352984 13.8125 23.59765625 C14.204375 24.64953125 14.59625 25.70140625 15 26.78515625 C16.93949713 33.49880017 16.95208649 40.09645455 16.92602539 47.03100586 C16.92617142 48.05615295 16.92631744 49.08130005 16.9264679 50.13751221 C16.92577413 53.50836339 16.91800689 56.87915853 16.91015625 60.25 C16.90829017 62.59412099 16.90686716 64.93824237 16.90586853 67.28236389 C16.90205836 73.43902674 16.8922409 79.59566584 16.88116455 85.75231934 C16.87091815 92.03995441 16.866364 98.32759335 16.86132812 104.61523438 C16.85061727 116.94271874 16.83355889 129.27018552 16.8125 141.59765625 C13.93836454 142.41895767 11.39650178 142.71996214 8.41113281 142.71118164 C7.1202475 142.71106834 7.1202475 142.71106834 5.80328369 142.71095276 C4.88335632 142.70579147 3.96342896 142.70063019 3.015625 142.6953125 C1.59246979 142.69319008 1.59246979 142.69319008 0.14056396 142.69102478 C-2.88548962 142.68543367 -5.91146883 142.67288277 -8.9375 142.66015625 C-10.99088435 142.6551401 -13.04426986 142.6505774 -15.09765625 142.64648438 C-20.12763276 142.63546714 -25.15755378 142.61820858 -30.1875 142.59765625 C-30.19558685 141.54244781 -30.20367371 140.48723938 -30.21200562 139.40005493 C-30.28969928 129.4255196 -30.37749609 119.45111679 -30.47502708 109.47675514 C-30.5248408 104.34960223 -30.57117153 99.22246845 -30.609375 94.09521484 C-30.6464171 89.1414006 -30.69282702 84.18775241 -30.74556351 79.23408127 C-30.76400736 77.35001939 -30.77915169 75.46592206 -30.79084396 73.58180618 C-30.35874055 53.47416229 -30.35874055 53.47416229 -39.4375 36.28515625 C-46.70959485 31.82273441 -53.39189197 30.403934 -61.8046875 32.13671875 C-69.84104026 34.30677246 -73.88704171 37.63076141 -78.171875 44.6953125 C-83.64693499 54.95052103 -81.38719471 71.69164623 -81.50390625 83.125 C-81.52454073 84.85234499 -81.54553855 86.57968568 -81.56687927 88.30702209 C-81.62143098 92.79979916 -81.67112813 97.29261655 -81.71972656 101.78546143 C-81.77939236 107.20482428 -81.84524292 112.62411526 -81.91002655 118.04341888 C-82.00719107 126.22811988 -82.09662241 134.41287218 -82.1875 142.59765625 C-97.3675 142.59765625 -112.5475 142.59765625 -128.1875 142.59765625 C-128.1875 93.09765625 -128.1875 43.59765625 -128.1875 -7.40234375 C-113.0075 -7.40234375 -97.8275 -7.40234375 -82.1875 -7.40234375 C-81.6925 -0.96734375 -81.6925 -0.96734375 -81.1875 5.59765625 C-80.5275 5.59765625 -79.8675 5.59765625 -79.1875 5.59765625 C-78.3625 4.77265625 -77.5375 3.94765625 -76.6875 3.09765625 C-75.8625 2.27265625 -75.0375 1.44765625 -74.1875 0.59765625 C-73.5275 0.59765625 -72.8675 0.59765625 -72.1875 0.59765625 C-72.1875 -0.06234375 -72.1875 -0.72234375 -72.1875 -1.40234375 C-51.59732482 -18.31159376 -20.31278497 -15.30926808 0 0 Z " fill="#F8F8F8" transform="translate(208.1875,82.40234375)"/>
<path d="M0 0 C15.51 0 31.02 0 47 0 C47.92976611 28.40214093 48.15762478 56.76141681 48.13037109 85.17700195 C48.12457389 91.30836913 48.12803401 97.43969348 48.13394356 103.57105923 C48.13754927 108.34337186 48.13641225 113.1156742 48.13381577 117.88798714 C48.13315168 120.15218168 48.1339567 122.41637717 48.13629532 124.6805706 C48.13883284 127.8149861 48.13497023 130.94933008 48.12939453 134.08374023 C48.13141876 135.00456894 48.13344299 135.92539764 48.13552856 136.87413025 C48.13270874 137.7292218 48.12988892 138.58431335 48.12698364 139.46531677 C48.12660662 140.20078452 48.12622959 140.93625227 48.12584114 141.69400692 C47.97359629 144.48383831 47.45932788 147.24403273 47 150 C31.49 150 15.98 150 0 150 C0 100.5 0 51 0 0 Z " fill="#F6F6F6" transform="translate(5,75)"/>
<path d="M0 0 C4.02163998 1.73730795 6.90022277 3.93025937 10 7 C10.60328125 7.58652344 11.2065625 8.17304688 11.828125 8.77734375 C18.13436071 15.52746498 19.59416996 21.67613018 19.34375 30.78515625 C18.46180335 39.03336181 14.12327789 45.53234581 8 51 C1.00666018 55.52279547 -5.76194456 56.6719864 -14 56 C-21.71464173 54.34485868 -28.49700804 49.65989122 -32.875 43.125 C-37.11296638 35.55106684 -37.72401161 28.50843138 -36 20 C-33.08410168 11.84654024 -27.7490596 5.89344453 -20.3984375 1.41015625 C-13.89464865 -1.28854234 -6.87404971 -1.46657937 0 0 Z " fill="#F4F4F4" transform="translate(37,0)"/>
<path d="M0 0 C0.33 0 0.66 0 1 0 C1.33 4.29 1.66 8.58 2 13 C2.66 13 3.32 13 4 13 C4.825 12.175 5.65 11.35 6.5 10.5 C7.325 9.675 8.15 8.85 9 8 C9.66 8 10.32 8 11 8 C11 7.34 11 6.68 11 6 C11.99 6.33 12.98 6.66 14 7 C12.33333333 8.66666667 10.66666667 10.33333333 9 12 C8.113125 12.928125 7.22625 13.85625 6.3125 14.8125 C4 17 4 17 2 17 C2 17.66 2 18.32 2 19 C1.34 19 0.68 19 0 19 C0 12.73 0 6.46 0 0 Z " fill="#727272" transform="translate(125,75)"/>
<path d="M0 0 C0.99 0.33 1.98 0.66 3 1 C-0.16952847 4.26008643 -3.39937989 7.22237877 -7 10 C-6.45912682 6.21388773 -4.88277668 4.44599233 -2 2 C-1.34 2 -0.68 2 0 2 C0 1.34 0 0.68 0 0 Z " fill="#B0B0B0" transform="translate(136,81)"/>
</svg>
