<svg width="22" height="22" viewBox="0 0 22 22" fill="none" xmlns="http://www.w3.org/2000/svg">
<path d="M21.6268 18.7949C21.996 19.2051 21.996 19.8203 21.5858 20.1895L20.4374 21.3379C20.0682 21.748 19.453 21.748 19.0428 21.3379L14.9823 17.2773C14.7772 17.0723 14.6952 16.8262 14.6952 16.5801V15.8828C13.2186 17.0312 11.4139 17.6875 9.44519 17.6875C4.72839 17.6875 0.91394 13.873 0.91394 9.15625C0.91394 4.48047 4.72839 0.625 9.44519 0.625C14.121 0.625 17.9764 4.48047 17.9764 9.15625C17.9764 11.166 17.2792 12.9707 16.1718 14.4062H16.828C17.0741 14.4062 17.3202 14.5293 17.5253 14.6934L21.6268 18.7949ZM9.44519 14.4062C12.3163 14.4062 14.6952 12.0684 14.6952 9.15625C14.6952 6.28516 12.3163 3.90625 9.44519 3.90625C6.53308 3.90625 4.19519 6.28516 4.19519 9.15625C4.19519 12.0684 6.53308 14.4062 9.44519 14.4062Z" fill="white"/>
</svg>
